<svg xmlns="http://www.w3.org/2000/svg" xmlns:v="https://svgstorm.com"
viewBox = "0 0 400 400"
width="400"
height="400">
<g fill="None" fill-opacity="0.0" stroke="#000002" stroke-opacity="0.00" stroke-width="0.3"><path d="
M 0.00 400.00 
L 400.00 400.00
L 400.00 0.00
L 0.00 0.00
L 0.00 400.00
M 167.00 87.00 
C 164.65 97.27 159.07 109.97 149.00 115.00
C 138.75 122.85 130.27 132.97 126.00 145.00
C 122.11 134.16 118.76 123.19 116.00 112.00
C 114.94 102.50 115.26 90.77 118.00 82.00
C 121.03 72.29 126.59 62.81 133.00 55.00
C 146.12 39.03 165.06 29.44 178.00 14.00
C 169.75 37.09 167.48 61.86 167.00 87.00
M 249.00 87.00 
C 249.51 89.72 249.22 92.34 250.00 95.00
C 262.81 97.37 277.33 100.08 286.00 111.00
C 291.84 118.32 292.60 127.65 299.70 134.30 C 306.81 140.94 316.46 142.67 324.00 148.00
C 326.48 149.75 327.07 149.46 327.00 153.00
C 326.97 154.55 324.81 158.61 324.00 160.00
C 314.73 175.95 300.13 169.47 285.33 171.33 C 270.53 173.19 269.58 195.41 267.00 206.00
C 262.04 226.33 244.30 240.06 228.00 252.00
C 231.88 243.82 240.40 236.06 244.00 227.00
C 235.87 231.80 225.56 233.41 220.00 242.00
C 220.98 250.07 223.27 256.25 228.00 263.00
C 228.86 264.23 230.23 265.54 231.00 267.00
C 245.94 266.98 258.44 248.56 268.00 239.00
C 277.86 229.14 291.76 220.89 293.00 206.00
C 300.92 232.94 323.57 254.44 320.00 285.00
C 319.90 287.63 319.38 289.63 319.00 292.00
C 315.89 311.52 304.87 332.47 289.00 345.00
C 241.61 382.42 181.85 363.95 130.00 348.00
C 121.67 345.44 112.99 345.64 105.75 340.25 C 98.52 334.85 92.25 332.92 85.00 328.00
C 73.39 320.12 63.98 316.25 56.75 303.25 C 49.52 290.25 45.78 276.56 48.00 261.00
C 48.49 257.54 48.23 254.11 50.00 251.00
C 51.11 251.84 52.04 253.46 52.00 255.00
C 54.84 265.11 58.18 273.19 69.00 278.00
C 71.44 275.56 61.81 267.89 60.70 263.30 C 59.58 258.72 56.52 250.76 53.68 245.32 C 50.84 239.88 50.21 230.59 49.00 224.00 C 47.80 217.41 48.06 208.23 49.78 201.78 C 51.49 195.33 52.22 188.36 55.92 182.92 C 59.63 177.49 61.29 170.91 67.00 168.00
C 65.50 182.06 64.39 199.61 75.00 210.00
C 76.54 209.09 75.94 206.63 76.00 205.00
C 74.99 187.41 80.63 172.23 88.00 157.00
C 98.60 135.07 101.95 109.34 88.00 88.00
C 90.64 88.16 92.62 91.02 94.00 93.00
C 97.09 96.09 99.08 98.04 101.00 102.00
C 102.76 105.63 104.68 109.16 106.00 113.00
C 108.59 120.57 110.73 128.02 112.00 136.00
C 112.51 139.18 113.38 145.87 113.00 149.00 C 112.62 152.13 112.19 160.82 115.00 159.00
C 115.16 158.77 116.00 159.00 116.00 159.00
C 126.45 146.77 142.06 140.72 153.00 130.00
C 154.45 126.17 158.39 123.06 161.00 120.00
C 170.41 108.99 177.22 96.27 179.00 82.00
C 185.51 95.66 188.93 113.21 190.00 130.00 C 191.07 146.79 185.74 162.86 178.00 177.00
C 183.72 171.59 190.00 166.10 194.00 159.00
C 201.76 145.23 199.71 128.93 204.00 114.00
C 206.40 105.64 210.83 98.60 214.00 91.00
C 214.19 88.81 214.67 86.33 215.00 84.00
C 216.93 70.48 220.96 55.78 231.00 46.00
C 235.49 60.36 245.47 72.30 249.00 87.00 Z"/>
</g>
<g fill="None" fill-opacity="0.0" stroke="#F4B15A" stroke-opacity="0.97" stroke-width="0.3"><path d="
M 133.00 55.00 
C 132.35 56.28 131.70 57.43 132.00 59.00
C 142.21 50.11 155.40 38.57 169.00 32.00
C 165.20 45.40 163.02 59.31 164.00 74.00
C 164.00 79.00 164.00 84.00 164.00 89.00
C 165.25 88.70 165.71 87.17 167.00 87.00
C 167.48 61.86 169.75 37.09 178.00 14.00
C 165.06 29.44 146.12 39.03 133.00 55.00 Z"/>
</g>
<g fill="None" fill-opacity="0.0" stroke="#ED7A52" stroke-opacity="0.99" stroke-width="0.3"><path d="
M 133.00 55.00 
C 126.59 62.81 121.03 72.29 118.00 82.00
C 118.62 83.74 125.73 77.83 126.75 74.75 C 127.77 71.68 133.72 68.09 136.25 66.81 C 138.77 65.52 141.79 60.06 144.30 57.30 C 146.81 54.55 154.59 54.47 155.00 49.00
C 158.34 49.50 161.52 48.98 163.00 46.00
C 162.70 55.10 162.12 65.26 164.00 74.00
C 163.02 59.31 165.20 45.40 169.00 32.00
C 155.40 38.57 142.21 50.11 132.00 59.00
C 131.70 57.43 132.35 56.28 133.00 55.00 Z"/>
</g>
<g fill="None" fill-opacity="0.0" stroke="#F1474F" stroke-opacity="1.00" stroke-width="0.3"><path d="
M 118.00 82.00 
C 115.26 90.77 114.94 102.50 116.00 112.00
C 117.10 115.02 123.10 125.66 123.78 132.22 C 124.45 138.78 124.73 134.76 127.00 139.00
C 128.06 127.61 138.84 120.85 149.00 115.00
C 159.07 109.97 164.65 97.27 167.00 87.00
C 165.71 87.17 165.25 88.70 164.00 89.00
C 164.00 84.00 164.00 79.00 164.00 74.00
C 162.12 65.26 162.70 55.10 163.00 46.00
C 161.52 48.98 158.34 49.50 155.00 49.00
C 154.59 54.47 146.81 54.55 144.30 57.30 C 141.79 60.06 138.77 65.52 136.25 66.81 C 133.72 68.09 127.77 71.68 126.75 74.75 C 125.73 77.83 118.62 83.74 118.00 82.00 Z"/>
</g>
<g fill="None" fill-opacity="0.0" stroke="#F4B15A" stroke-opacity="0.98" stroke-width="0.3"><path d="
M 215.00 84.00 
C 215.36 87.19 218.83 89.82 220.00 93.00
C 222.55 83.66 233.00 92.86 240.00 90.00
C 240.12 85.99 234.71 84.35 236.00 80.00
C 233.91 70.70 229.01 62.17 230.00 52.00
C 237.46 63.01 242.12 76.42 247.00 89.00
C 248.26 88.92 247.56 86.94 249.00 87.00
C 245.47 72.30 235.49 60.36 231.00 46.00
C 220.96 55.78 216.93 70.48 215.00 84.00 Z"/>
</g>
<g fill="None" fill-opacity="0.0" stroke="#F1474F" stroke-opacity="0.98" stroke-width="0.3"><path d="
M 236.00 80.00 
C 239.10 87.89 244.92 100.80 254.02 102.98 C 263.13 105.16 278.45 105.02 286.00 111.00
C 277.33 100.08 262.81 97.37 250.00 95.00
C 249.22 92.34 249.51 89.72 249.00 87.00
C 247.56 86.94 248.26 88.92 247.00 89.00
C 242.12 76.42 237.46 63.01 230.00 52.00
C 229.01 62.17 233.91 70.70 236.00 80.00 Z"/>
</g>
<g fill="None" fill-opacity="0.0" stroke="#ED7A52" stroke-opacity="1.00" stroke-width="0.3"><path d="
M 215.00 84.00 
C 214.67 86.33 214.19 88.81 214.00 91.00
C 213.18 100.30 214.57 110.52 217.78 118.22 C 220.99 125.93 220.18 136.29 218.01 144.01 C 215.84 151.72 211.32 157.64 205.75 163.75 C 200.18 169.86 198.72 175.07 191.75 180.75 C 184.79 186.44 183.65 192.96 180.08 201.08 C 176.50 209.19 186.51 219.80 195.08 212.08 C 203.65 204.36 203.03 222.02 205.00 228.00
C 213.28 225.42 211.09 240.13 214.93 246.07 C 218.76 252.01 220.82 263.03 228.00 263.00
C 223.27 256.25 220.98 250.07 220.00 242.00
C 217.14 218.33 231.65 199.75 250.00 186.00
C 235.78 186.47 222.05 188.87 208.00 190.00
C 211.16 183.55 209.38 168.98 218.02 168.02 C 226.66 167.06 235.99 165.61 242.70 159.70 C 249.40 153.78 252.01 147.96 260.03 144.03 C 268.04 140.09 277.86 139.02 286.07 142.93 C 294.28 146.83 299.97 150.37 308.00 154.00
C 311.53 154.91 331.74 155.66 324.00 148.00
C 316.46 142.67 306.81 140.94 299.70 134.30 C 292.60 127.65 291.84 118.32 286.00 111.00
C 278.45 105.02 263.13 105.16 254.02 102.98 C 244.92 100.80 239.10 87.89 236.00 80.00
C 234.71 84.35 240.12 85.99 240.00 90.00
C 233.00 92.86 222.55 83.66 220.00 93.00
C 218.83 89.82 215.36 87.19 215.00 84.00 Z"/>
</g>
<g fill="None" fill-opacity="0.0" stroke="#F1474F" stroke-opacity="0.99" stroke-width="0.3"><path d="
M 161.00 120.00 
C 162.16 119.05 164.93 118.52 166.00 117.00
C 166.12 120.75 162.05 124.28 165.00 128.00
C 158.92 127.43 160.30 137.44 156.00 137.00
C 158.22 139.80 158.06 141.57 155.00 144.00
C 157.03 144.92 166.79 143.22 163.00 139.00
C 167.67 138.84 178.29 131.66 175.22 141.22 C 172.15 150.79 174.14 152.22 168.02 161.02 C 161.91 169.83 151.91 183.08 147.07 193.07 C 142.23 203.07 141.39 204.88 141.00 214.00 C 140.61 223.12 141.92 226.03 143.00 235.00
C 137.27 237.20 136.54 228.72 135.01 223.99 C 133.48 219.27 133.81 210.68 134.00 206.00
C 125.36 216.14 131.01 234.68 136.30 245.70 C 141.60 256.71 139.13 269.67 151.00 278.00
C 134.53 275.34 119.55 267.34 109.30 255.70 C 99.04 244.06 92.86 221.26 94.00 205.00 C 95.14 188.74 103.58 171.06 115.00 159.00
C 112.19 160.82 112.62 152.13 113.00 149.00 C 113.38 145.87 112.51 139.18 112.00 136.00
C 110.68 132.37 109.28 129.59 107.22 125.78 C 105.17 121.96 106.30 116.31 106.00 113.00
C 104.68 109.16 102.76 105.63 101.00 102.00
C 102.29 113.86 101.96 129.09 98.22 141.22 C 94.48 153.36 90.47 162.54 84.00 173.00
C 81.48 177.06 80.71 180.36 80.00 185.00
C 79.36 189.20 78.71 194.31 77.22 198.22 C 75.73 202.13 79.28 210.72 75.00 210.00
C 64.39 199.61 65.50 182.06 67.00 168.00
C 61.29 170.91 59.63 177.49 55.92 182.92 C 52.22 188.36 51.49 195.33 49.78 201.78 C 48.06 208.23 47.80 217.41 49.00 224.00 C 50.21 230.59 50.84 239.88 53.68 245.32 C 56.52 250.76 59.58 258.72 60.70 263.30 C 61.81 267.89 71.44 275.56 69.00 278.00
C 65.80 281.20 57.38 267.85 53.00 269.00
C 55.11 288.98 68.85 312.22 89.00 315.00
C 91.67 307.79 102.03 314.63 108.22 315.78 C 114.42 316.92 125.31 322.75 130.00 318.00
C 125.93 317.96 121.65 314.60 123.00 310.00
C 118.72 310.96 118.69 306.62 120.00 304.00
C 117.38 303.29 113.36 303.87 112.00 301.00
C 118.48 303.30 123.69 294.58 130.00 300.00
C 129.22 294.78 134.00 296.12 138.00 297.00
C 136.03 292.87 144.23 293.31 147.00 293.00
C 134.57 290.22 145.21 284.42 153.00 286.00 C 160.79 287.58 168.69 285.16 174.00 281.00
C 162.15 271.63 145.66 261.22 141.00 246.00
C 152.17 258.25 165.68 267.07 181.00 270.00
C 182.33 269.97 183.67 269.97 185.00 270.00
C 195.05 270.20 205.59 271.83 216.00 271.00
C 220.12 270.67 227.72 270.89 231.00 268.00
C 230.75 267.74 231.00 267.00 231.00 267.00
C 230.23 265.54 228.86 264.23 228.00 263.00
C 220.82 263.03 218.76 252.01 214.93 246.07 C 211.09 240.13 213.28 225.42 205.00 228.00
C 203.03 222.02 203.65 204.36 195.08 212.08 C 186.51 219.80 176.50 209.19 180.08 201.08 C 183.65 192.96 184.79 186.44 191.75 180.75 C 198.72 175.07 200.18 169.86 205.75 163.75 C 211.32 157.64 215.84 151.72 218.01 144.01 C 220.18 136.29 220.99 125.93 217.78 118.22 C 214.57 110.52 213.18 100.30 214.00 91.00
C 210.83 98.60 206.40 105.64 204.00 114.00
C 203.99 115.00 205.29 119.06 206.00 120.00
C 207.47 114.07 208.65 107.52 213.00 103.00
C 214.69 124.56 212.73 146.45 194.00 159.00
C 190.00 166.10 183.72 171.59 178.00 177.00
C 185.74 162.86 191.07 146.79 190.00 130.00 C 188.93 113.21 185.51 95.66 179.00 82.00
C 177.22 96.27 170.41 108.99 161.00 120.00
M 99.00 254.00 
C 104.86 266.46 116.50 274.74 129.00 279.00
C 122.63 280.81 112.17 276.33 106.77 272.23 C 101.37 268.13 92.52 258.08 99.00 254.00 Z"/>
</g>
<g fill="None" fill-opacity="0.0" stroke="#641FFA" stroke-opacity="0.83" stroke-width="0.3"><path d="
M 88.00 157.00 
C 88.69 156.33 91.14 156.02 92.00 155.00
C 99.61 135.12 103.88 112.98 94.00 93.00
C 92.62 91.02 90.64 88.16 88.00 88.00
C 101.95 109.34 98.60 135.07 88.00 157.00 Z"/>
</g>
<g fill="None" fill-opacity="0.0" stroke="#EA2889" stroke-opacity="0.98" stroke-width="0.3"><path d="
M 92.00 155.00 
C 89.68 161.05 86.35 166.93 84.00 173.00
C 90.47 162.54 94.48 153.36 98.22 141.22 C 101.96 129.09 102.29 113.86 101.00 102.00
C 99.08 98.04 97.09 96.09 94.00 93.00
C 103.88 112.98 99.61 135.12 92.00 155.00 Z"/>
</g>
<g fill="None" fill-opacity="0.0" stroke="#EA2889" stroke-opacity="0.96" stroke-width="0.3"><path d="
M 204.00 114.00 
C 199.71 128.93 201.76 145.23 194.00 159.00
C 212.73 146.45 214.69 124.56 213.00 103.00
C 208.65 107.52 207.47 114.07 206.00 120.00
C 205.29 119.06 203.99 115.00 204.00 114.00
M 202.00 139.00 
C 201.48 133.27 204.79 128.00 208.00 124.00
C 210.29 128.60 210.01 140.19 202.00 139.00 Z"/>
</g>
<g fill="None" fill-opacity="0.0" stroke="#EA2889" stroke-opacity="0.80" stroke-width="0.3"><path d="
M 116.00 112.00 
C 118.76 123.19 122.11 134.16 126.00 145.00
C 130.27 132.97 138.75 122.85 149.00 115.00
C 138.84 120.85 128.06 127.61 127.00 139.00
C 124.73 134.76 124.45 138.78 123.78 132.22 C 123.10 125.66 117.10 115.02 116.00 112.00 Z"/>
</g>
<g fill="None" fill-opacity="0.0" stroke="#EA2889" stroke-opacity="0.90" stroke-width="0.3"><path d="
M 112.00 136.00 
C 110.73 128.02 108.59 120.57 106.00 113.00
C 106.30 116.31 105.17 121.96 107.22 125.78 C 109.28 129.59 110.68 132.37 112.00 136.00 Z"/>
</g>
<g fill="None" fill-opacity="0.0" stroke="#ED7A52" stroke-opacity="1.00" stroke-width="0.3"><path d="
M 161.00 120.00 
C 158.39 123.06 154.45 126.17 153.00 130.00
C 150.90 135.56 146.92 140.61 140.25 145.25 C 133.59 149.90 129.68 156.43 123.75 161.75 C 117.82 167.07 116.22 176.20 111.08 182.08 C 105.93 187.95 106.76 199.65 100.00 200.00
C 100.32 196.07 99.80 192.37 98.00 189.00
C 103.66 178.89 107.05 167.68 116.00 159.00
C 116.00 159.00 115.16 158.77 115.00 159.00
C 103.58 171.06 95.14 188.74 94.00 205.00 C 92.86 221.26 99.04 244.06 109.30 255.70 C 119.55 267.34 134.53 275.34 151.00 278.00
C 139.13 269.67 141.60 256.71 136.30 245.70 C 131.01 234.68 125.36 216.14 134.00 206.00
C 133.81 210.68 133.48 219.27 135.01 223.99 C 136.54 228.72 137.27 237.20 143.00 235.00
C 141.92 226.03 140.61 223.12 141.00 214.00 C 141.39 204.88 142.23 203.07 147.07 193.07 C 151.91 183.08 161.91 169.83 168.02 161.02 C 174.14 152.22 172.15 150.79 175.22 141.22 C 178.29 131.66 167.67 138.84 163.00 139.00
C 166.79 143.22 157.03 144.92 155.00 144.00
C 158.06 141.57 158.22 139.80 156.00 137.00
C 160.30 137.44 158.92 127.43 165.00 128.00
C 162.05 124.28 166.12 120.75 166.00 117.00
C 164.93 118.52 162.16 119.05 161.00 120.00
M 144.00 170.00 
C 130.76 188.24 126.56 211.80 126.00 235.00
C 110.45 230.23 115.64 210.20 119.92 198.92 C 124.20 187.64 132.97 176.06 144.00 170.00 Z"/>
</g>
<g fill="None" fill-opacity="0.0" stroke="#B138CE" stroke-opacity="1.00" stroke-width="0.3"><path d="
M 202.00 139.00 
C 210.01 140.19 210.29 128.60 208.00 124.00
C 204.79 128.00 201.48 133.27 202.00 139.00 Z"/>
</g>
<g fill="None" fill-opacity="0.0" stroke="#F4B15A" stroke-opacity="0.99" stroke-width="0.3"><path d="
M 116.00 159.00 
C 107.05 167.68 103.66 178.89 98.00 189.00
C 99.80 192.37 100.32 196.07 100.00 200.00
C 106.76 199.65 105.93 187.95 111.08 182.08 C 116.22 176.20 117.82 167.07 123.75 161.75 C 129.68 156.43 133.59 149.90 140.25 145.25 C 146.92 140.61 150.90 135.56 153.00 130.00
C 142.06 140.72 126.45 146.77 116.00 159.00 Z"/>
</g>
<g fill="None" fill-opacity="0.0" stroke="#DAE2F1" stroke-opacity="1.00" stroke-width="0.3"><path d="
M 220.00 242.00 
C 225.56 233.41 235.87 231.80 244.00 227.00
C 240.40 236.06 231.88 243.82 228.00 252.00
C 244.30 240.06 262.04 226.33 267.00 206.00
C 267.22 194.23 268.81 174.88 283.03 170.03 C 297.24 165.17 313.64 175.10 324.00 160.00
C 324.81 158.61 326.97 154.55 327.00 153.00
C 324.85 158.66 311.18 155.32 308.00 154.00
C 299.97 150.37 294.28 146.83 286.07 142.93 C 277.86 139.02 268.04 140.09 260.03 144.03 C 252.01 147.96 249.40 153.78 242.70 159.70 C 235.99 165.61 226.66 167.06 218.02 168.02 C 209.38 168.98 211.16 183.55 208.00 190.00
C 222.05 188.87 235.78 186.47 250.00 186.00
C 231.65 199.75 217.14 218.33 220.00 242.00 Z"/>
</g>
<g fill="None" fill-opacity="0.0" stroke="#F4B15A" stroke-opacity="0.98" stroke-width="0.3"><path d="
M 308.00 154.00 
C 311.18 155.32 324.85 158.66 327.00 153.00
C 327.07 149.46 326.48 149.75 324.00 148.00
C 331.74 155.66 311.53 154.91 308.00 154.00 Z"/>
</g>
<g fill="None" fill-opacity="0.0" stroke="#B138CE" stroke-opacity="0.75" stroke-width="0.3"><path d="
M 88.00 157.00 
C 80.63 172.23 74.99 187.41 76.00 205.00
C 76.33 196.64 77.50 191.95 80.00 185.00
C 80.71 180.36 81.48 177.06 84.00 173.00
C 86.35 166.93 89.68 161.05 92.00 155.00
C 91.14 156.02 88.69 156.33 88.00 157.00 Z"/>
</g>
<g fill="None" fill-opacity="0.0" stroke="#DAE2F1" stroke-opacity="0.91" stroke-width="0.3"><path d="
M 267.00 206.00 
C 269.58 195.41 270.53 173.19 285.33 171.33 C 300.13 169.47 314.73 175.95 324.00 160.00
C 313.64 175.10 297.24 165.17 283.03 170.03 C 268.81 174.88 267.22 194.23 267.00 206.00 Z"/>
</g>
<g fill="None" fill-opacity="0.0" stroke="#F4B15A" stroke-opacity="1.00" stroke-width="0.3"><path d="
M 144.00 170.00 
C 132.97 176.06 124.20 187.64 119.92 198.92 C 115.64 210.20 110.45 230.23 126.00 235.00
C 126.56 211.80 130.76 188.24 144.00 170.00 Z"/>
</g>
<g fill="None" fill-opacity="0.0" stroke="#EA2889" stroke-opacity="0.97" stroke-width="0.3"><path d="
M 76.00 205.00 
C 75.94 206.63 76.54 209.09 75.00 210.00
C 79.28 210.72 75.73 202.13 77.22 198.22 C 78.71 194.31 79.36 189.20 80.00 185.00
C 77.50 191.95 76.33 196.64 76.00 205.00 Z"/>
</g>
<g fill="None" fill-opacity="0.0" stroke="#DAE2F1" stroke-opacity="1.00" stroke-width="0.3"><path d="
M 268.00 239.00 
C 257.58 253.02 250.22 269.03 247.00 286.00
C 250.64 282.62 255.38 281.35 259.00 278.00
C 263.26 274.06 266.44 269.59 271.00 266.00
C 271.50 269.68 269.75 273.31 268.00 276.00
C 264.38 283.16 260.19 290.24 254.00 296.00
C 271.69 294.73 289.92 282.42 295.00 265.00
C 294.63 280.14 291.67 297.76 287.00 313.00
C 299.29 305.15 309.85 294.85 320.00 285.00
C 323.57 254.44 300.92 232.94 293.00 206.00
C 291.76 220.89 277.86 229.14 268.00 239.00 Z"/>
</g>
<g fill="None" fill-opacity="0.0" stroke="#641FFA" stroke-opacity="0.99" stroke-width="0.3"><path d="
M 231.00 267.00 
C 231.00 267.00 230.75 267.74 231.00 268.00
C 232.06 269.11 233.79 270.13 235.00 271.00
C 236.90 267.66 240.46 265.75 244.00 265.00
C 235.10 288.11 209.17 299.79 192.00 316.00
C 204.99 311.83 219.54 305.74 232.00 304.00
C 222.26 308.60 210.94 310.21 201.77 315.77 C 192.60 321.33 180.72 319.78 174.00 329.00
C 176.15 331.31 181.26 328.60 183.00 332.00
C 179.70 330.89 179.75 335.39 177.00 336.00
C 178.22 337.49 181.37 338.37 181.00 341.00
C 157.92 343.07 127.07 339.42 106.92 330.08 C 86.77 320.74 68.23 311.45 58.00 291.00
C 56.09 285.49 54.30 279.51 52.00 274.00
C 50.44 270.25 48.17 265.05 48.00 261.00
C 45.78 276.56 49.52 290.25 56.75 303.25 C 63.98 316.25 73.39 320.12 85.00 328.00
C 86.30 328.09 96.91 329.67 102.03 333.97 C 107.15 338.28 115.27 341.14 121.22 343.78 C 127.17 346.42 125.59 345.27 130.00 348.00
C 181.85 363.95 241.61 382.42 289.00 345.00
C 303.09 329.15 310.96 310.84 319.00 292.00
C 319.38 289.63 319.90 287.63 320.00 285.00
C 309.85 294.85 299.29 305.15 287.00 313.00
C 291.67 297.76 294.63 280.14 295.00 265.00
C 289.92 282.42 271.69 294.73 254.00 296.00
C 260.19 290.24 264.38 283.16 268.00 276.00
C 268.20 274.51 268.52 271.72 267.00 271.00
C 265.02 273.97 261.58 275.59 259.00 278.00
C 255.38 281.35 250.64 282.62 247.00 286.00
C 250.22 269.03 257.58 253.02 268.00 239.00
C 258.44 248.56 245.94 266.98 231.00 267.00 Z"/>
</g>
<g fill="None" fill-opacity="0.0" stroke="#EA2889" stroke-opacity="1.00" stroke-width="0.3"><path d="
M 69.00 278.00 
C 58.18 273.19 54.84 265.11 52.00 255.00
C 47.75 258.67 50.75 268.47 52.00 274.00
C 54.30 279.51 56.09 285.49 58.00 291.00
C 78.12 331.69 135.81 335.20 173.00 322.00
C 159.52 318.18 141.83 319.04 130.00 310.00
C 138.25 308.62 152.94 315.00 160.22 309.22 C 167.50 303.44 148.15 295.48 144.00 296.00
C 150.30 292.63 162.48 294.71 170.22 291.22 C 177.97 287.74 184.59 284.90 192.00 281.00
C 189.52 275.14 181.50 274.17 176.00 272.00
C 175.48 269.08 179.33 270.27 181.00 270.00
C 165.68 267.07 152.17 258.25 141.00 246.00
C 145.66 261.22 162.15 271.63 174.00 281.00
C 168.69 285.16 160.79 287.58 153.00 286.00 C 145.21 284.42 134.57 290.22 147.00 293.00
C 144.23 293.31 136.03 292.87 138.00 297.00
C 134.00 296.12 129.22 294.78 130.00 300.00
C 123.69 294.58 118.48 303.30 112.00 301.00
C 113.36 303.87 117.38 303.29 120.00 304.00
C 118.69 306.62 118.72 310.96 123.00 310.00
C 121.65 314.60 125.93 317.96 130.00 318.00
C 125.31 322.75 114.42 316.92 108.22 315.78 C 102.03 314.63 91.67 307.79 89.00 315.00
C 68.85 312.22 55.11 288.98 53.00 269.00
C 57.38 267.85 65.80 281.20 69.00 278.00 Z"/>
</g>
<g fill="None" fill-opacity="0.0" stroke="#B138CE" stroke-opacity="0.87" stroke-width="0.3"><path d="
M 48.00 261.00 
C 48.17 265.05 50.44 270.25 52.00 274.00
C 50.75 268.47 47.75 258.67 52.00 255.00
C 52.04 253.46 51.11 251.84 50.00 251.00
C 48.23 254.11 48.49 257.54 48.00 261.00 Z"/>
</g>
<g fill="None" fill-opacity="0.0" stroke="#000002" stroke-opacity="0.03" stroke-width="0.3"><path d="
M 99.00 254.00 
C 92.52 258.08 101.37 268.13 106.77 272.23 C 112.17 276.33 122.63 280.81 129.00 279.00
C 116.50 274.74 104.86 266.46 99.00 254.00 Z"/>
</g>
<g fill="None" fill-opacity="0.0" stroke="#B138CE" stroke-opacity="1.00" stroke-width="0.3"><path d="
M 231.00 268.00 
C 227.72 270.89 220.12 270.67 216.00 271.00
C 206.04 272.92 194.53 271.83 185.00 270.00
C 183.67 269.97 182.33 269.97 181.00 270.00
C 179.33 270.27 175.48 269.08 176.00 272.00
C 181.50 274.17 189.52 275.14 192.00 281.00
C 184.59 284.90 177.97 287.74 170.22 291.22 C 162.48 294.71 150.30 292.63 144.00 296.00
C 148.15 295.48 167.50 303.44 160.22 309.22 C 152.94 315.00 138.25 308.62 130.00 310.00
C 141.83 319.04 159.52 318.18 173.00 322.00
C 135.81 335.20 78.12 331.69 58.00 291.00
C 68.23 311.45 86.77 320.74 106.92 330.08 C 127.07 339.42 157.92 343.07 181.00 341.00
C 181.37 338.37 178.22 337.49 177.00 336.00
C 179.75 335.39 179.70 330.89 183.00 332.00
C 181.26 328.60 176.15 331.31 174.00 329.00
C 180.72 319.78 192.60 321.33 201.77 315.77 C 210.94 310.21 222.26 308.60 232.00 304.00
C 219.54 305.74 204.99 311.83 192.00 316.00
C 209.17 299.79 235.10 288.11 244.00 265.00
C 240.46 265.75 236.90 267.66 235.00 271.00
C 233.79 270.13 232.06 269.11 231.00 268.00 Z"/>
</g>
<g fill="None" fill-opacity="0.0" stroke="#B138CE" stroke-opacity="1.00" stroke-width="0.3"><path d="
M 259.00 278.00 
C 261.58 275.59 265.02 273.97 267.00 271.00
C 268.52 271.72 268.20 274.51 268.00 276.00
C 269.75 273.31 271.50 269.68 271.00 266.00
C 266.44 269.59 263.26 274.06 259.00 278.00 Z"/>
</g>
<g fill="None" fill-opacity="0.0" stroke="#EA2889" stroke-opacity="1.00" stroke-width="0.3"><path d="
M 216.00 271.00 
C 205.59 271.83 195.05 270.20 185.00 270.00
C 194.53 271.83 206.04 272.92 216.00 271.00 Z"/>
</g>
<g fill="None" fill-opacity="0.0" stroke="#641FFA" stroke-opacity="0.81" stroke-width="0.3"><path d="
M 289.00 345.00 
C 304.87 332.47 315.89 311.52 319.00 292.00
C 310.96 310.84 303.09 329.15 289.00 345.00 Z"/>
</g>
<g fill="None" fill-opacity="0.0" stroke="#B138CE" stroke-opacity="0.85" stroke-width="0.3"><path d="
M 85.00 328.00 
C 92.25 332.92 98.52 334.85 105.75 340.25 C 112.99 345.64 121.67 345.44 130.00 348.00
C 125.59 345.27 127.17 346.42 121.22 343.78 C 115.27 341.14 107.15 338.28 102.03 333.97 C 96.91 329.67 86.30 328.09 85.00 328.00 Z"/>
</g>
<g fill="#000002" fill-opacity="0.00" stroke="None">
<path d="
M 0.00 400.00 
L 400.00 400.00
L 400.00 0.00
L 0.00 0.00
L 0.00 400.00
M 167.00 87.00 
C 164.65 97.27 159.07 109.97 149.00 115.00
C 138.75 122.85 130.27 132.97 126.00 145.00
C 122.11 134.16 118.76 123.19 116.00 112.00
C 114.94 102.50 115.26 90.77 118.00 82.00
C 121.03 72.29 126.59 62.81 133.00 55.00
C 146.12 39.03 165.06 29.44 178.00 14.00
C 169.75 37.09 167.48 61.86 167.00 87.00
M 249.00 87.00 
C 249.51 89.72 249.22 92.34 250.00 95.00
C 262.81 97.37 277.33 100.08 286.00 111.00
C 291.84 118.32 292.60 127.65 299.70 134.30 C 306.81 140.94 316.46 142.67 324.00 148.00
C 326.48 149.75 327.07 149.46 327.00 153.00
C 326.97 154.55 324.81 158.61 324.00 160.00
C 314.73 175.95 300.13 169.47 285.33 171.33 C 270.53 173.19 269.58 195.41 267.00 206.00
C 262.04 226.33 244.30 240.06 228.00 252.00
C 231.88 243.82 240.40 236.06 244.00 227.00
C 235.87 231.80 225.56 233.41 220.00 242.00
C 220.98 250.07 223.27 256.25 228.00 263.00
C 228.86 264.23 230.23 265.54 231.00 267.00
C 245.94 266.98 258.44 248.56 268.00 239.00
C 277.86 229.14 291.76 220.89 293.00 206.00
C 300.92 232.94 323.57 254.44 320.00 285.00
C 319.90 287.63 319.38 289.63 319.00 292.00
C 315.89 311.52 304.87 332.47 289.00 345.00
C 241.61 382.42 181.85 363.95 130.00 348.00
C 121.67 345.44 112.99 345.64 105.75 340.25 C 98.52 334.85 92.25 332.92 85.00 328.00
C 73.39 320.12 63.98 316.25 56.75 303.25 C 49.52 290.25 45.78 276.56 48.00 261.00
C 48.49 257.54 48.23 254.11 50.00 251.00
C 51.11 251.84 52.04 253.46 52.00 255.00
C 54.84 265.11 58.18 273.19 69.00 278.00
C 71.44 275.56 61.81 267.89 60.70 263.30 C 59.58 258.72 56.52 250.76 53.68 245.32 C 50.84 239.88 50.21 230.59 49.00 224.00 C 47.80 217.41 48.06 208.23 49.78 201.78 C 51.49 195.33 52.22 188.36 55.92 182.92 C 59.63 177.49 61.29 170.91 67.00 168.00
C 65.50 182.06 64.39 199.61 75.00 210.00
C 76.54 209.09 75.94 206.63 76.00 205.00
C 74.99 187.41 80.63 172.23 88.00 157.00
C 98.60 135.07 101.95 109.34 88.00 88.00
C 90.64 88.16 92.62 91.02 94.00 93.00
C 97.09 96.09 99.08 98.04 101.00 102.00
C 102.76 105.63 104.68 109.16 106.00 113.00
C 108.59 120.57 110.73 128.02 112.00 136.00
C 112.51 139.18 113.38 145.87 113.00 149.00 C 112.62 152.13 112.19 160.82 115.00 159.00
C 115.16 158.77 116.00 159.00 116.00 159.00
C 126.45 146.77 142.06 140.72 153.00 130.00
C 154.45 126.17 158.39 123.06 161.00 120.00
C 170.41 108.99 177.22 96.27 179.00 82.00
C 185.51 95.66 188.93 113.21 190.00 130.00 C 191.07 146.79 185.74 162.86 178.00 177.00
C 183.72 171.59 190.00 166.10 194.00 159.00
C 201.76 145.23 199.71 128.93 204.00 114.00
C 206.40 105.64 210.83 98.60 214.00 91.00
C 214.19 88.81 214.67 86.33 215.00 84.00
C 216.93 70.48 220.96 55.78 231.00 46.00
C 235.49 60.36 245.47 72.30 249.00 87.00 Z"/>
</g>
<g fill="#F4B15A" fill-opacity="0.97" stroke="None">
<path d="
M 133.00 55.00 
C 132.35 56.28 131.70 57.43 132.00 59.00
C 142.21 50.11 155.40 38.57 169.00 32.00
C 165.20 45.40 163.02 59.31 164.00 74.00
C 164.00 79.00 164.00 84.00 164.00 89.00
C 165.25 88.70 165.71 87.17 167.00 87.00
C 167.48 61.86 169.75 37.09 178.00 14.00
C 165.06 29.44 146.12 39.03 133.00 55.00 Z"/>
</g>
<g fill="#ED7A52" fill-opacity="0.99" stroke="None">
<path d="
M 133.00 55.00 
C 126.59 62.81 121.03 72.29 118.00 82.00
C 118.62 83.74 125.73 77.83 126.75 74.75 C 127.77 71.68 133.72 68.09 136.25 66.81 C 138.77 65.52 141.79 60.06 144.30 57.30 C 146.81 54.55 154.59 54.47 155.00 49.00
C 158.34 49.50 161.52 48.98 163.00 46.00
C 162.70 55.10 162.12 65.26 164.00 74.00
C 163.02 59.31 165.20 45.40 169.00 32.00
C 155.40 38.57 142.21 50.11 132.00 59.00
C 131.70 57.43 132.35 56.28 133.00 55.00 Z"/>
</g>
<g fill="#F1474F" fill-opacity="1.00" stroke="None">
<path d="
M 118.00 82.00 
C 115.26 90.77 114.94 102.50 116.00 112.00
C 117.10 115.02 123.10 125.66 123.78 132.22 C 124.45 138.78 124.73 134.76 127.00 139.00
C 128.06 127.61 138.84 120.85 149.00 115.00
C 159.07 109.97 164.65 97.27 167.00 87.00
C 165.71 87.17 165.25 88.70 164.00 89.00
C 164.00 84.00 164.00 79.00 164.00 74.00
C 162.12 65.26 162.70 55.10 163.00 46.00
C 161.52 48.98 158.34 49.50 155.00 49.00
C 154.59 54.47 146.81 54.55 144.30 57.30 C 141.79 60.06 138.77 65.52 136.25 66.81 C 133.72 68.09 127.77 71.68 126.75 74.75 C 125.73 77.83 118.62 83.74 118.00 82.00 Z"/>
</g>
<g fill="#F4B15A" fill-opacity="0.98" stroke="None">
<path d="
M 215.00 84.00 
C 215.36 87.19 218.83 89.82 220.00 93.00
C 222.55 83.66 233.00 92.86 240.00 90.00
C 240.12 85.99 234.71 84.35 236.00 80.00
C 233.91 70.70 229.01 62.17 230.00 52.00
C 237.46 63.01 242.12 76.42 247.00 89.00
C 248.26 88.92 247.56 86.94 249.00 87.00
C 245.47 72.30 235.49 60.36 231.00 46.00
C 220.96 55.78 216.93 70.48 215.00 84.00 Z"/>
</g>
<g fill="#F1474F" fill-opacity="0.98" stroke="None">
<path d="
M 236.00 80.00 
C 239.10 87.89 244.92 100.80 254.02 102.98 C 263.13 105.16 278.45 105.02 286.00 111.00
C 277.33 100.08 262.81 97.37 250.00 95.00
C 249.22 92.34 249.51 89.72 249.00 87.00
C 247.56 86.94 248.26 88.92 247.00 89.00
C 242.12 76.42 237.46 63.01 230.00 52.00
C 229.01 62.17 233.91 70.70 236.00 80.00 Z"/>
</g>
<g fill="#ED7A52" fill-opacity="1.00" stroke="None">
<path d="
M 215.00 84.00 
C 214.67 86.33 214.19 88.81 214.00 91.00
C 213.18 100.30 214.57 110.52 217.78 118.22 C 220.99 125.93 220.18 136.29 218.01 144.01 C 215.84 151.72 211.32 157.64 205.75 163.75 C 200.18 169.86 198.72 175.07 191.75 180.75 C 184.79 186.44 183.65 192.96 180.08 201.08 C 176.50 209.19 186.51 219.80 195.08 212.08 C 203.65 204.36 203.03 222.02 205.00 228.00
C 213.28 225.42 211.09 240.13 214.93 246.07 C 218.76 252.01 220.82 263.03 228.00 263.00
C 223.27 256.25 220.98 250.07 220.00 242.00
C 217.14 218.33 231.65 199.75 250.00 186.00
C 235.78 186.47 222.05 188.87 208.00 190.00
C 211.16 183.55 209.38 168.98 218.02 168.02 C 226.66 167.06 235.99 165.61 242.70 159.70 C 249.40 153.78 252.01 147.96 260.03 144.03 C 268.04 140.09 277.86 139.02 286.07 142.93 C 294.28 146.83 299.97 150.37 308.00 154.00
C 311.53 154.91 331.74 155.66 324.00 148.00
C 316.46 142.67 306.81 140.94 299.70 134.30 C 292.60 127.65 291.84 118.32 286.00 111.00
C 278.45 105.02 263.13 105.16 254.02 102.98 C 244.92 100.80 239.10 87.89 236.00 80.00
C 234.71 84.35 240.12 85.99 240.00 90.00
C 233.00 92.86 222.55 83.66 220.00 93.00
C 218.83 89.82 215.36 87.19 215.00 84.00 Z"/>
</g>
<g fill="#F1474F" fill-opacity="0.99" stroke="None">
<path d="
M 161.00 120.00 
C 162.16 119.05 164.93 118.52 166.00 117.00
C 166.12 120.75 162.05 124.28 165.00 128.00
C 158.92 127.43 160.30 137.44 156.00 137.00
C 158.22 139.80 158.06 141.57 155.00 144.00
C 157.03 144.92 166.79 143.22 163.00 139.00
C 167.67 138.84 178.29 131.66 175.22 141.22 C 172.15 150.79 174.14 152.22 168.02 161.02 C 161.91 169.83 151.91 183.08 147.07 193.07 C 142.23 203.07 141.39 204.88 141.00 214.00 C 140.61 223.12 141.92 226.03 143.00 235.00
C 137.27 237.20 136.54 228.72 135.01 223.99 C 133.48 219.27 133.81 210.68 134.00 206.00
C 125.36 216.14 131.01 234.68 136.30 245.70 C 141.60 256.71 139.13 269.67 151.00 278.00
C 134.53 275.34 119.55 267.34 109.30 255.70 C 99.04 244.06 92.86 221.26 94.00 205.00 C 95.14 188.74 103.58 171.06 115.00 159.00
C 112.19 160.82 112.62 152.13 113.00 149.00 C 113.38 145.87 112.51 139.18 112.00 136.00
C 110.68 132.37 109.28 129.59 107.22 125.78 C 105.17 121.96 106.30 116.31 106.00 113.00
C 104.68 109.16 102.76 105.63 101.00 102.00
C 102.29 113.86 101.96 129.09 98.22 141.22 C 94.48 153.36 90.47 162.54 84.00 173.00
C 81.48 177.06 80.71 180.36 80.00 185.00
C 79.36 189.20 78.71 194.31 77.22 198.22 C 75.73 202.13 79.28 210.72 75.00 210.00
C 64.39 199.61 65.50 182.06 67.00 168.00
C 61.29 170.91 59.63 177.49 55.92 182.92 C 52.22 188.36 51.49 195.33 49.78 201.78 C 48.06 208.23 47.80 217.41 49.00 224.00 C 50.21 230.59 50.84 239.88 53.68 245.32 C 56.52 250.76 59.58 258.72 60.70 263.30 C 61.81 267.89 71.44 275.56 69.00 278.00
C 65.80 281.20 57.38 267.85 53.00 269.00
C 55.11 288.98 68.85 312.22 89.00 315.00
C 91.67 307.79 102.03 314.63 108.22 315.78 C 114.42 316.92 125.31 322.75 130.00 318.00
C 125.93 317.96 121.65 314.60 123.00 310.00
C 118.72 310.96 118.69 306.62 120.00 304.00
C 117.38 303.29 113.36 303.87 112.00 301.00
C 118.48 303.30 123.69 294.58 130.00 300.00
C 129.22 294.78 134.00 296.12 138.00 297.00
C 136.03 292.87 144.23 293.31 147.00 293.00
C 134.57 290.22 145.21 284.42 153.00 286.00 C 160.79 287.58 168.69 285.16 174.00 281.00
C 162.15 271.63 145.66 261.22 141.00 246.00
C 152.17 258.25 165.68 267.07 181.00 270.00
C 182.33 269.97 183.67 269.97 185.00 270.00
C 195.05 270.20 205.59 271.83 216.00 271.00
C 220.12 270.67 227.72 270.89 231.00 268.00
C 230.75 267.74 231.00 267.00 231.00 267.00
C 230.23 265.54 228.86 264.23 228.00 263.00
C 220.82 263.03 218.76 252.01 214.93 246.07 C 211.09 240.13 213.28 225.42 205.00 228.00
C 203.03 222.02 203.65 204.36 195.08 212.08 C 186.51 219.80 176.50 209.19 180.08 201.08 C 183.65 192.96 184.79 186.44 191.75 180.75 C 198.72 175.07 200.18 169.86 205.75 163.75 C 211.32 157.64 215.84 151.72 218.01 144.01 C 220.18 136.29 220.99 125.93 217.78 118.22 C 214.57 110.52 213.18 100.30 214.00 91.00
C 210.83 98.60 206.40 105.64 204.00 114.00
C 203.99 115.00 205.29 119.06 206.00 120.00
C 207.47 114.07 208.65 107.52 213.00 103.00
C 214.69 124.56 212.73 146.45 194.00 159.00
C 190.00 166.10 183.72 171.59 178.00 177.00
C 185.74 162.86 191.07 146.79 190.00 130.00 C 188.93 113.21 185.51 95.66 179.00 82.00
C 177.22 96.27 170.41 108.99 161.00 120.00
M 99.00 254.00 
C 104.86 266.46 116.50 274.74 129.00 279.00
C 122.63 280.81 112.17 276.33 106.77 272.23 C 101.37 268.13 92.52 258.08 99.00 254.00 Z"/>
</g>
<g fill="#641FFA" fill-opacity="0.83" stroke="None">
<path d="
M 88.00 157.00 
C 88.69 156.33 91.14 156.02 92.00 155.00
C 99.61 135.12 103.88 112.98 94.00 93.00
C 92.62 91.02 90.64 88.16 88.00 88.00
C 101.95 109.34 98.60 135.07 88.00 157.00 Z"/>
</g>
<g fill="#EA2889" fill-opacity="0.98" stroke="None">
<path d="
M 92.00 155.00 
C 89.68 161.05 86.35 166.93 84.00 173.00
C 90.47 162.54 94.48 153.36 98.22 141.22 C 101.96 129.09 102.29 113.86 101.00 102.00
C 99.08 98.04 97.09 96.09 94.00 93.00
C 103.88 112.98 99.61 135.12 92.00 155.00 Z"/>
</g>
<g fill="#EA2889" fill-opacity="0.96" stroke="None">
<path d="
M 204.00 114.00 
C 199.71 128.93 201.76 145.23 194.00 159.00
C 212.73 146.45 214.69 124.56 213.00 103.00
C 208.65 107.52 207.47 114.07 206.00 120.00
C 205.29 119.06 203.99 115.00 204.00 114.00
M 202.00 139.00 
C 201.48 133.27 204.79 128.00 208.00 124.00
C 210.29 128.60 210.01 140.19 202.00 139.00 Z"/>
</g>
<g fill="#EA2889" fill-opacity="0.80" stroke="None">
<path d="
M 116.00 112.00 
C 118.76 123.19 122.11 134.16 126.00 145.00
C 130.27 132.97 138.75 122.85 149.00 115.00
C 138.84 120.85 128.06 127.61 127.00 139.00
C 124.73 134.76 124.45 138.78 123.78 132.22 C 123.10 125.66 117.10 115.02 116.00 112.00 Z"/>
</g>
<g fill="#EA2889" fill-opacity="0.90" stroke="None">
<path d="
M 112.00 136.00 
C 110.73 128.02 108.59 120.57 106.00 113.00
C 106.30 116.31 105.17 121.96 107.22 125.78 C 109.28 129.59 110.68 132.37 112.00 136.00 Z"/>
</g>
<g fill="#ED7A52" fill-opacity="1.00" stroke="None">
<path d="
M 161.00 120.00 
C 158.39 123.06 154.45 126.17 153.00 130.00
C 150.90 135.56 146.92 140.61 140.25 145.25 C 133.59 149.90 129.68 156.43 123.75 161.75 C 117.82 167.07 116.22 176.20 111.08 182.08 C 105.93 187.95 106.76 199.65 100.00 200.00
C 100.32 196.07 99.80 192.37 98.00 189.00
C 103.66 178.89 107.05 167.68 116.00 159.00
C 116.00 159.00 115.16 158.77 115.00 159.00
C 103.58 171.06 95.14 188.74 94.00 205.00 C 92.86 221.26 99.04 244.06 109.30 255.70 C 119.55 267.34 134.53 275.34 151.00 278.00
C 139.13 269.67 141.60 256.71 136.30 245.70 C 131.01 234.68 125.36 216.14 134.00 206.00
C 133.81 210.68 133.48 219.27 135.01 223.99 C 136.54 228.72 137.27 237.20 143.00 235.00
C 141.92 226.03 140.61 223.12 141.00 214.00 C 141.39 204.88 142.23 203.07 147.07 193.07 C 151.91 183.08 161.91 169.83 168.02 161.02 C 174.14 152.22 172.15 150.79 175.22 141.22 C 178.29 131.66 167.67 138.84 163.00 139.00
C 166.79 143.22 157.03 144.92 155.00 144.00
C 158.06 141.57 158.22 139.80 156.00 137.00
C 160.30 137.44 158.92 127.43 165.00 128.00
C 162.05 124.28 166.12 120.75 166.00 117.00
C 164.93 118.52 162.16 119.05 161.00 120.00
M 144.00 170.00 
C 130.76 188.24 126.56 211.80 126.00 235.00
C 110.45 230.23 115.64 210.20 119.92 198.92 C 124.20 187.64 132.97 176.06 144.00 170.00 Z"/>
</g>
<g fill="#B138CE" fill-opacity="1.00" stroke="None">
<path d="
M 202.00 139.00 
C 210.01 140.19 210.29 128.60 208.00 124.00
C 204.79 128.00 201.48 133.27 202.00 139.00 Z"/>
</g>
<g fill="#F4B15A" fill-opacity="0.99" stroke="None">
<path d="
M 116.00 159.00 
C 107.05 167.68 103.66 178.89 98.00 189.00
C 99.80 192.37 100.32 196.07 100.00 200.00
C 106.76 199.65 105.93 187.95 111.08 182.08 C 116.22 176.20 117.82 167.07 123.75 161.75 C 129.68 156.43 133.59 149.90 140.25 145.25 C 146.92 140.61 150.90 135.56 153.00 130.00
C 142.06 140.72 126.45 146.77 116.00 159.00 Z"/>
</g>
<g fill="#DAE2F1" fill-opacity="1.00" stroke="None">
<path d="
M 220.00 242.00 
C 225.56 233.41 235.87 231.80 244.00 227.00
C 240.40 236.06 231.88 243.82 228.00 252.00
C 244.30 240.06 262.04 226.33 267.00 206.00
C 267.22 194.23 268.81 174.88 283.03 170.03 C 297.24 165.17 313.64 175.10 324.00 160.00
C 324.81 158.61 326.97 154.55 327.00 153.00
C 324.85 158.66 311.18 155.32 308.00 154.00
C 299.97 150.37 294.28 146.83 286.07 142.93 C 277.86 139.02 268.04 140.09 260.03 144.03 C 252.01 147.96 249.40 153.78 242.70 159.70 C 235.99 165.61 226.66 167.06 218.02 168.02 C 209.38 168.98 211.16 183.55 208.00 190.00
C 222.05 188.87 235.78 186.47 250.00 186.00
C 231.65 199.75 217.14 218.33 220.00 242.00 Z"/>
</g>
<g fill="#F4B15A" fill-opacity="0.98" stroke="None">
<path d="
M 308.00 154.00 
C 311.18 155.32 324.85 158.66 327.00 153.00
C 327.07 149.46 326.48 149.75 324.00 148.00
C 331.74 155.66 311.53 154.91 308.00 154.00 Z"/>
</g>
<g fill="#B138CE" fill-opacity="0.75" stroke="None">
<path d="
M 88.00 157.00 
C 80.63 172.23 74.99 187.41 76.00 205.00
C 76.33 196.64 77.50 191.95 80.00 185.00
C 80.71 180.36 81.48 177.06 84.00 173.00
C 86.35 166.93 89.68 161.05 92.00 155.00
C 91.14 156.02 88.69 156.33 88.00 157.00 Z"/>
</g>
<g fill="#DAE2F1" fill-opacity="0.91" stroke="None">
<path d="
M 267.00 206.00 
C 269.58 195.41 270.53 173.19 285.33 171.33 C 300.13 169.47 314.73 175.95 324.00 160.00
C 313.64 175.10 297.24 165.17 283.03 170.03 C 268.81 174.88 267.22 194.23 267.00 206.00 Z"/>
</g>
<g fill="#F4B15A" fill-opacity="1.00" stroke="None">
<path d="
M 144.00 170.00 
C 132.97 176.06 124.20 187.64 119.92 198.92 C 115.64 210.20 110.45 230.23 126.00 235.00
C 126.56 211.80 130.76 188.24 144.00 170.00 Z"/>
</g>
<g fill="#EA2889" fill-opacity="0.97" stroke="None">
<path d="
M 76.00 205.00 
C 75.94 206.63 76.54 209.09 75.00 210.00
C 79.28 210.72 75.73 202.13 77.22 198.22 C 78.71 194.31 79.36 189.20 80.00 185.00
C 77.50 191.95 76.33 196.64 76.00 205.00 Z"/>
</g>
<g fill="#DAE2F1" fill-opacity="1.00" stroke="None">
<path d="
M 268.00 239.00 
C 257.58 253.02 250.22 269.03 247.00 286.00
C 250.64 282.62 255.38 281.35 259.00 278.00
C 263.26 274.06 266.44 269.59 271.00 266.00
C 271.50 269.68 269.75 273.31 268.00 276.00
C 264.38 283.16 260.19 290.24 254.00 296.00
C 271.69 294.73 289.92 282.42 295.00 265.00
C 294.63 280.14 291.67 297.76 287.00 313.00
C 299.29 305.15 309.85 294.85 320.00 285.00
C 323.57 254.44 300.92 232.94 293.00 206.00
C 291.76 220.89 277.86 229.14 268.00 239.00 Z"/>
</g>
<g fill="#641FFA" fill-opacity="0.99" stroke="None">
<path d="
M 231.00 267.00 
C 231.00 267.00 230.75 267.74 231.00 268.00
C 232.06 269.11 233.79 270.13 235.00 271.00
C 236.90 267.66 240.46 265.75 244.00 265.00
C 235.10 288.11 209.17 299.79 192.00 316.00
C 204.99 311.83 219.54 305.74 232.00 304.00
C 222.26 308.60 210.94 310.21 201.77 315.77 C 192.60 321.33 180.72 319.78 174.00 329.00
C 176.15 331.31 181.26 328.60 183.00 332.00
C 179.70 330.89 179.75 335.39 177.00 336.00
C 178.22 337.49 181.37 338.37 181.00 341.00
C 157.92 343.07 127.07 339.42 106.92 330.08 C 86.77 320.74 68.23 311.45 58.00 291.00
C 56.09 285.49 54.30 279.51 52.00 274.00
C 50.44 270.25 48.17 265.05 48.00 261.00
C 45.78 276.56 49.52 290.25 56.75 303.25 C 63.98 316.25 73.39 320.12 85.00 328.00
C 86.30 328.09 96.91 329.67 102.03 333.97 C 107.15 338.28 115.27 341.14 121.22 343.78 C 127.17 346.42 125.59 345.27 130.00 348.00
C 181.85 363.95 241.61 382.42 289.00 345.00
C 303.09 329.15 310.96 310.84 319.00 292.00
C 319.38 289.63 319.90 287.63 320.00 285.00
C 309.85 294.85 299.29 305.15 287.00 313.00
C 291.67 297.76 294.63 280.14 295.00 265.00
C 289.92 282.42 271.69 294.73 254.00 296.00
C 260.19 290.24 264.38 283.16 268.00 276.00
C 268.20 274.51 268.52 271.72 267.00 271.00
C 265.02 273.97 261.58 275.59 259.00 278.00
C 255.38 281.35 250.64 282.62 247.00 286.00
C 250.22 269.03 257.58 253.02 268.00 239.00
C 258.44 248.56 245.94 266.98 231.00 267.00 Z"/>
</g>
<g fill="#EA2889" fill-opacity="1.00" stroke="None">
<path d="
M 69.00 278.00 
C 58.18 273.19 54.84 265.11 52.00 255.00
C 47.75 258.67 50.75 268.47 52.00 274.00
C 54.30 279.51 56.09 285.49 58.00 291.00
C 78.12 331.69 135.81 335.20 173.00 322.00
C 159.52 318.18 141.83 319.04 130.00 310.00
C 138.25 308.62 152.94 315.00 160.22 309.22 C 167.50 303.44 148.15 295.48 144.00 296.00
C 150.30 292.63 162.48 294.71 170.22 291.22 C 177.97 287.74 184.59 284.90 192.00 281.00
C 189.52 275.14 181.50 274.17 176.00 272.00
C 175.48 269.08 179.33 270.27 181.00 270.00
C 165.68 267.07 152.17 258.25 141.00 246.00
C 145.66 261.22 162.15 271.63 174.00 281.00
C 168.69 285.16 160.79 287.58 153.00 286.00 C 145.21 284.42 134.57 290.22 147.00 293.00
C 144.23 293.31 136.03 292.87 138.00 297.00
C 134.00 296.12 129.22 294.78 130.00 300.00
C 123.69 294.58 118.48 303.30 112.00 301.00
C 113.36 303.87 117.38 303.29 120.00 304.00
C 118.69 306.62 118.72 310.96 123.00 310.00
C 121.65 314.60 125.93 317.96 130.00 318.00
C 125.31 322.75 114.42 316.92 108.22 315.78 C 102.03 314.63 91.67 307.79 89.00 315.00
C 68.85 312.22 55.11 288.98 53.00 269.00
C 57.38 267.85 65.80 281.20 69.00 278.00 Z"/>
</g>
<g fill="#B138CE" fill-opacity="0.87" stroke="None">
<path d="
M 48.00 261.00 
C 48.17 265.05 50.44 270.25 52.00 274.00
C 50.75 268.47 47.75 258.67 52.00 255.00
C 52.04 253.46 51.11 251.84 50.00 251.00
C 48.23 254.11 48.49 257.54 48.00 261.00 Z"/>
</g>
<g fill="#000002" fill-opacity="0.03" stroke="None">
<path d="
M 99.00 254.00 
C 92.52 258.08 101.37 268.13 106.77 272.23 C 112.17 276.33 122.63 280.81 129.00 279.00
C 116.50 274.74 104.86 266.46 99.00 254.00 Z"/>
</g>
<g fill="#B138CE" fill-opacity="1.00" stroke="None">
<path d="
M 231.00 268.00 
C 227.72 270.89 220.12 270.67 216.00 271.00
C 206.04 272.92 194.53 271.83 185.00 270.00
C 183.67 269.97 182.33 269.97 181.00 270.00
C 179.33 270.27 175.48 269.08 176.00 272.00
C 181.50 274.17 189.52 275.14 192.00 281.00
C 184.59 284.90 177.97 287.74 170.22 291.22 C 162.48 294.71 150.30 292.63 144.00 296.00
C 148.15 295.48 167.50 303.44 160.22 309.22 C 152.94 315.00 138.25 308.62 130.00 310.00
C 141.83 319.04 159.52 318.18 173.00 322.00
C 135.81 335.20 78.12 331.69 58.00 291.00
C 68.23 311.45 86.77 320.74 106.92 330.08 C 127.07 339.42 157.92 343.07 181.00 341.00
C 181.37 338.37 178.22 337.49 177.00 336.00
C 179.75 335.39 179.70 330.89 183.00 332.00
C 181.26 328.60 176.15 331.31 174.00 329.00
C 180.72 319.78 192.60 321.33 201.77 315.77 C 210.94 310.21 222.26 308.60 232.00 304.00
C 219.54 305.74 204.99 311.83 192.00 316.00
C 209.17 299.79 235.10 288.11 244.00 265.00
C 240.46 265.75 236.90 267.66 235.00 271.00
C 233.79 270.13 232.06 269.11 231.00 268.00 Z"/>
</g>
<g fill="#B138CE" fill-opacity="1.00" stroke="None">
<path d="
M 259.00 278.00 
C 261.58 275.59 265.02 273.97 267.00 271.00
C 268.52 271.72 268.20 274.51 268.00 276.00
C 269.75 273.31 271.50 269.68 271.00 266.00
C 266.44 269.59 263.26 274.06 259.00 278.00 Z"/>
</g>
<g fill="#EA2889" fill-opacity="1.00" stroke="None">
<path d="
M 216.00 271.00 
C 205.59 271.83 195.05 270.20 185.00 270.00
C 194.53 271.83 206.04 272.92 216.00 271.00 Z"/>
</g>
<g fill="#641FFA" fill-opacity="0.81" stroke="None">
<path d="
M 289.00 345.00 
C 304.87 332.47 315.89 311.52 319.00 292.00
C 310.96 310.84 303.09 329.15 289.00 345.00 Z"/>
</g>
<g fill="#B138CE" fill-opacity="0.85" stroke="None">
<path d="
M 85.00 328.00 
C 92.25 332.92 98.52 334.85 105.75 340.25 C 112.99 345.64 121.67 345.44 130.00 348.00
C 125.59 345.27 127.17 346.42 121.22 343.78 C 115.27 341.14 107.15 338.28 102.03 333.97 C 96.91 329.67 86.30 328.09 85.00 328.00 Z"/>
</g>
</svg>